<svg width="24" height="24" viewBox="0 0 24 24" fill="none" xmlns="http://www.w3.org/2000/svg">
<path d="M8.71875 14.0327L8.65873 14.8806L8.65873 14.8806L8.71875 14.0327ZM2.43867 18.6837L3.24507 18.9525L3.2468 18.9472L2.43867 18.6837ZM3.96978 13.9875L4.77792 14.251C4.91573 13.8283 4.70453 13.3708 4.29342 13.2015L3.96978 13.9875ZM7.99993 6.99993L8.02654 6.15035L8.01295 6.14992L7.99936 6.14993L7.99993 6.99993ZM13.8725 14.832L14.0969 14.0122L13.8725 14.832ZM13.8687 6.18043L14.1227 6.99162L13.8687 6.18043ZM13.1499 6.27615V14.7354H14.8499V6.27615H13.1499ZM14.0969 14.0122C11.7414 13.3674 9.72589 13.2519 8.77878 13.1848L8.65873 14.8806C9.60774 14.9478 11.4716 15.0561 13.648 15.6519L14.0969 14.0122ZM6.96562 14.4149L5.42147 19.0474L7.03423 19.585L8.57838 14.9525L6.96562 14.4149ZM5.27917 19.1499H3.38735V20.8499H5.27917V19.1499ZM3.2468 18.9472L4.77792 14.251L3.16165 13.724L1.63054 18.4202L3.2468 18.9472ZM5.96888 7.85127L8.00049 7.84993L7.99936 6.14993L5.96776 6.15127L5.96888 7.85127ZM7.99993 6.99993C7.97332 7.84951 7.97347 7.84952 7.97363 7.84952C7.9737 7.84952 7.97388 7.84953 7.97401 7.84953C7.97429 7.84954 7.97462 7.84955 7.97499 7.84956C7.97572 7.84959 7.97664 7.84961 7.97774 7.84964C7.97993 7.84971 7.98284 7.84979 7.98646 7.84988C7.99369 7.85007 8.00374 7.85031 8.01652 7.85057C8.04208 7.85109 8.07856 7.85169 8.12523 7.85209C8.21856 7.8529 8.35275 7.85294 8.52189 7.85001C8.85993 7.84417 9.33899 7.8265 9.91154 7.77933C11.0518 7.6854 12.5859 7.4727 14.1227 6.99162L13.6148 5.36925C12.238 5.80023 10.8378 5.99727 9.77196 6.08507C9.2415 6.12877 8.79964 6.14496 8.49253 6.15027C8.33909 6.15292 8.21964 6.15285 8.13997 6.15216C8.10014 6.15181 8.07029 6.15131 8.05113 6.15092C8.04156 6.15073 8.03466 6.15056 8.03053 6.15045C8.02846 6.1504 8.02709 6.15036 8.02642 6.15034C8.02609 6.15033 8.02593 6.15033 8.02595 6.15033C8.02596 6.15033 8.02601 6.15033 8.02611 6.15033C8.02616 6.15033 8.02626 6.15034 8.02629 6.15034C8.02641 6.15034 8.02654 6.15035 7.99993 6.99993ZM4.29342 13.2015C2.41102 12.4264 1.98846 10.1383 3.10499 8.69812L1.76146 7.65652C0.0306829 9.889 0.616985 13.5262 3.64615 14.7735L4.29342 13.2015ZM3.38735 19.1499C3.28497 19.1499 3.21267 19.0496 3.24505 18.9525L1.63229 18.4149C1.23298 19.6128 2.12462 20.8499 3.38735 20.8499V19.1499ZM5.42147 19.0474C5.40105 19.1086 5.34373 19.1499 5.27917 19.1499V20.8499C6.07546 20.8499 6.78242 20.3404 7.03423 19.585L5.42147 19.0474ZM8.77878 13.1848C7.93581 13.1251 7.21587 13.6642 6.96562 14.4149L8.57838 14.9525C8.58898 14.9207 8.60653 14.9014 8.62089 14.8914C8.63375 14.8824 8.6451 14.8796 8.65873 14.8806L8.77878 13.1848ZM5.96776 6.15127C5.29538 6.15171 4.52258 6.18772 3.79298 6.38171C3.05399 6.57819 2.30887 6.95042 1.76146 7.65652L3.10499 8.69812C3.35651 8.37368 3.72697 8.15832 4.2298 8.02463C4.74203 7.88844 5.33731 7.85169 5.96888 7.85127L5.96776 6.15127ZM13.1499 14.7354C13.1499 14.2327 13.6278 13.8838 14.0969 14.0122L13.648 15.6519C14.245 15.8153 14.8499 15.3706 14.8499 14.7354H13.1499ZM14.8499 6.27615C14.8499 5.62602 14.2188 5.18019 13.6148 5.36925L14.1227 6.99162C13.6483 7.14012 13.1499 6.7905 13.1499 6.27615H14.8499Z" fill="#FD434D"/>
<mask id="mask0" mask-type="alpha" maskUnits="userSpaceOnUse" x="17" y="3" width="6" height="15">
<path d="M17 3H23V17.9725H17V3Z" fill="white"/>
</mask>
<g mask="url(#mask0)">
<circle cx="16" cy="11" r="6" stroke="#FD434D" stroke-width="2"/>
<circle cx="16" cy="11" r="2" stroke="#FD434D" stroke-width="2"/>
</g>
</svg>
