<svg width="35" height="36" viewBox="0 0 35 36" fill="none" xmlns="http://www.w3.org/2000/svg">
<circle cx="17.5" cy="18" r="17.5" fill="#323549" fill-opacity="0.2"/>
<path d="M23.5384 21.3099C23.7092 20.8993 24.2909 20.8993 24.4617 21.3099L25.2511 23.2079C25.3227 23.3799 25.484 23.4979 25.6696 23.514L27.5441 23.6765C27.9734 23.7137 28.1577 24.2402 27.8454 24.537L26.4214 25.8905C26.2922 26.0133 26.2382 26.1956 26.2795 26.369L26.76 28.3833C26.8632 28.8159 26.3926 29.1578 26.013 28.926L24.2607 27.8557C24.1007 27.7579 23.8995 27.7579 23.7394 27.8557L21.9871 28.926C21.6076 29.1578 21.137 28.8159 21.2402 28.3833L21.7208 26.3683C21.7621 26.1953 21.7083 26.0134 21.5796 25.8906L20.1604 24.5364C19.8491 24.2393 20.0335 23.7138 20.4623 23.6765L22.3306 23.514C22.5162 23.4979 22.6774 23.3799 22.749 23.2079L23.5384 21.3099Z" fill="#828495"/>
<path d="M9 12.8C9 11.1198 9 10.2798 9.32698 9.63803C9.6146 9.07354 10.0735 8.6146 10.638 8.32698C11.2798 8 12.1198 8 13.8 8H17.2C17.48 8 17.62 8 17.727 8.0545C17.8211 8.10243 17.8976 8.17892 17.9455 8.273C18 8.37996 18 8.51997 18 8.8V11C18 13.2091 19.7909 15 22 15H24.2C24.48 15 24.62 15 24.727 15.0545C24.8211 15.1024 24.8976 15.1789 24.9455 15.273C25 15.38 25 15.52 25 15.8V18.2C25 18.48 25 18.62 24.9455 18.727C24.8976 18.8211 24.8211 18.8976 24.727 18.9455C24.62 19 24.48 19 24.2 19H24C20.6863 19 18 21.6863 18 25V27.2C18 27.48 18 27.62 17.9455 27.727C17.8976 27.8211 17.8211 27.8976 17.727 27.9455C17.62 28 17.48 28 17.2 28H13.8C12.1198 28 11.2798 28 10.638 27.673C10.0735 27.3854 9.6146 26.9265 9.32698 26.362C9 25.7202 9 24.8802 9 23.2V12.8Z" fill="#A0A2B0" fill-opacity="0.5"/>
<path d="M20 8.70711C20 8.31658 20.3166 8 20.7071 8C20.8946 8 21.0745 8.0745 21.2071 8.20711L24.7929 11.7929C24.9255 11.9255 25 12.1054 25 12.2929C25 12.6834 24.6834 13 24.2929 13H22C20.8954 13 20 12.1046 20 11V8.70711Z" fill="#828495"/>
</svg>
