<svg width="19" height="19" viewBox="0 0 19 19" fill="none" xmlns="http://www.w3.org/2000/svg">
<path d="M15.8334 12.666H10.2917C9.85452 12.666 9.50008 12.3116 9.50008 11.8743V7.12435C9.50008 6.68712 9.85452 6.33268 10.2917 6.33268H15.8334M15.8334 12.666C16.2706 12.666 16.6251 12.3116 16.6251 11.8743V7.12435C16.6251 6.68712 16.2706 6.33268 15.8334 6.33268M15.8334 12.666V15.041C15.8334 15.4782 15.479 15.8327 15.0417 15.8327H3.95841C3.52119 15.8327 3.16675 15.4782 3.16675 15.041V3.95768C3.16675 3.52046 3.52119 3.16602 3.95841 3.16602H15.0417C15.479 3.16602 15.8334 3.52046 15.8334 3.95768V6.33268" stroke="#A0A2B0" stroke-width="1.3"/>
<rect x="11.4792" y="8.3125" width="2.375" height="2.375" rx="1.1875" fill="#A0A2B0" fill-opacity="0.5"/>
</svg>
