<svg width="14" height="8" viewBox="0 0 14 8" fill="none" xmlns="http://www.w3.org/2000/svg">
<g opacity="0.7">
<g opacity="0.35">
<path opacity="0.35" d="M10.6315 1H1.93616C1.16766 1 0.544678 1.62417 0.544678 2.39411V5.52995C0.544678 6.2999 1.16766 6.92407 1.93616 6.92407H10.6315C11.3999 6.92407 12.0229 6.2999 12.0229 5.52995V2.39411C12.0229 1.62417 11.3999 1 10.6315 1Z" fill="white"/>
<path opacity="0.35" d="M10.6316 1.26172H1.93627C1.31185 1.26172 0.805664 1.76887 0.805664 2.39447V5.53031C0.805664 6.15591 1.31185 6.66306 1.93627 6.66306H10.6316C11.256 6.66306 11.7622 6.15591 11.7622 5.53031V2.39447C11.7622 1.76887 11.256 1.26172 10.6316 1.26172Z" stroke="#EFEFEF" stroke-miterlimit="10"/>
</g>
<g opacity="0.4">
<path d="M12.5447 2.91699V5.0079C12.75 4.92128 12.9253 4.77588 13.0486 4.58992C13.1718 4.40395 13.2376 4.18568 13.2375 3.96245C13.2376 3.73922 13.1718 3.52095 13.0486 3.33498C12.9253 3.14901 12.75 3.00361 12.5447 2.91699" fill="white"/>
<path d="M12.5447 2.91699V5.0079C12.75 4.92128 12.9253 4.77588 13.0486 4.58992C13.1718 4.40395 13.2376 4.18568 13.2375 3.96245C13.2376 3.73922 13.1718 3.52095 13.0486 3.33498C12.9253 3.14901 12.75 3.00361 12.5447 2.91699" stroke="white"/>
</g>
<path d="M10.284 2.0459H2.28361C1.89951 2.0459 1.58813 2.35786 1.58813 2.74269V5.18226C1.58813 5.56709 1.89951 5.87906 2.28361 5.87906H10.284C10.6681 5.87906 10.9794 5.56709 10.9794 5.18226V2.74269C10.9794 2.35786 10.6681 2.0459 10.284 2.0459Z" fill="white" stroke="white"/>
</g>
</svg>
