<svg width="32" height="32" viewBox="0 0 32 32" fill="none" xmlns="http://www.w3.org/2000/svg">
<g clip-path="url(#clip0)">
<path d="M0.00396729 6C0.00396729 4.93913 0.425395 3.92172 1.17554 3.17157C1.92569 2.42143 2.9431 2 4.00397 2H28.004C29.0648 2 30.0822 2.42143 30.8324 3.17157C31.5825 3.92172 32.004 4.93913 32.004 6V26C32.004 27.0609 31.5825 28.0783 30.8324 28.8284C30.0822 29.5786 29.0648 30 28.004 30H4.00397C2.9431 30 1.92569 29.5786 1.17554 28.8284C0.425395 28.0783 0.00396729 27.0609 0.00396729 26V6ZM2.00397 24V26C2.00397 26.5304 2.21468 27.0391 2.58975 27.4142C2.96483 27.7893 3.47353 28 4.00397 28H28.004C28.5344 28 29.0431 27.7893 29.4182 27.4142C29.7933 27.0391 30.004 26.5304 30.004 26V19L22.45 15.106C22.2624 15.012 22.0501 14.9795 21.843 15.0128C21.6359 15.0462 21.4445 15.1439 21.296 15.292L13.876 22.712L8.55597 19.168C8.36389 19.0401 8.13349 18.9826 7.90384 19.0052C7.6742 19.0278 7.45943 19.1291 7.29597 19.292L2.00397 24ZM12.004 11C12.004 10.2044 11.6879 9.44129 11.1253 8.87868C10.5627 8.31607 9.79962 8 9.00397 8C8.20832 8 7.44526 8.31607 6.88265 8.87868C6.32004 9.44129 6.00397 10.2044 6.00397 11C6.00397 11.7956 6.32004 12.5587 6.88265 13.1213C7.44526 13.6839 8.20832 14 9.00397 14C9.79962 14 10.5627 13.6839 11.1253 13.1213C11.6879 12.5587 12.004 11.7956 12.004 11Z" fill="#A0A2B0"/>
</g>
<defs>
<clipPath id="clip0">
<rect width="32" height="32" fill="white"/>
</clipPath>
</defs>
</svg>
