<svg width="9" height="6" viewBox="0 0 9 6" fill="none" xmlns="http://www.w3.org/2000/svg">
<path opacity="0.7" d="M8.34781 5.57593H7.82608C7.6877 5.57593 7.555 5.52086 7.45715 5.42283C7.35931 5.3248 7.30434 5.19184 7.30434 5.05321V0.522727C7.30434 0.384091 7.35931 0.251134 7.45715 0.153103C7.555 0.0550729 7.6877 0 7.82608 0L8.34781 0C8.48619 0 8.61889 0.0550729 8.71674 0.153103C8.81458 0.251134 8.86955 0.384091 8.86955 0.522727V5.05321C8.86955 5.19184 8.81458 5.3248 8.71674 5.42283C8.61889 5.52086 8.48619 5.57593 8.34781 5.57593ZM5.91286 5.57593H5.39112C5.25275 5.57593 5.12004 5.52086 5.0222 5.42283C4.92435 5.3248 4.86938 5.19184 4.86938 5.05321V1.74277C4.86938 1.60414 4.92435 1.47118 5.0222 1.37315C5.12004 1.27512 5.25275 1.22005 5.39112 1.22005H5.91286C6.05124 1.22005 6.18394 1.27512 6.28179 1.37315C6.37963 1.47118 6.4346 1.60414 6.4346 1.74277V5.05321C6.4346 5.19175 6.3797 5.32463 6.28197 5.42265C6.18424 5.52066 6.05167 5.57579 5.91338 5.57593H5.91286ZM3.47791 5.57593H2.95617C2.8178 5.57593 2.68509 5.52086 2.58724 5.42283C2.4894 5.3248 2.43443 5.19184 2.43443 5.05321V2.9623C2.43443 2.82366 2.4894 2.6907 2.58724 2.59267C2.68509 2.49464 2.8178 2.43957 2.95617 2.43957H3.47791C3.61628 2.43957 3.74899 2.49464 3.84683 2.59267C3.94468 2.6907 3.99965 2.82366 3.99965 2.9623V5.05321C3.99965 5.19184 3.94468 5.3248 3.84683 5.42283C3.74899 5.52086 3.61628 5.57593 3.47791 5.57593ZM1.04348 5.57593H0.521738C0.383365 5.57593 0.250659 5.52086 0.152814 5.42283C0.0549687 5.3248 0 5.19184 0 5.05321V4.00775C0 3.86911 0.0549687 3.73616 0.152814 3.63813C0.250659 3.5401 0.383365 3.48502 0.521738 3.48502H1.04348C1.18185 3.48502 1.31456 3.5401 1.4124 3.63813C1.51025 3.73616 1.56522 3.86911 1.56522 4.00775V5.05321C1.56522 5.19184 1.51025 5.3248 1.4124 5.42283C1.31456 5.52086 1.18185 5.57593 1.04348 5.57593Z" fill="white"/>
</svg>
