<svg width="38" height="38" viewBox="0 0 38 38" fill="none" xmlns="http://www.w3.org/2000/svg">
<circle opacity="0.15" cx="19" cy="19" r="19" fill="#0FA931"/>
<path d="M19 5C16.2311 5 13.5243 5.82109 11.222 7.35943C8.91973 8.89777 7.12532 11.0843 6.06569 13.6424C5.00607 16.2006 4.72882 19.0155 5.26901 21.7313C5.80921 24.447 7.14258 26.9416 9.10051 28.8995C11.0584 30.8574 13.553 32.1908 16.2687 32.731C18.9845 33.2712 21.7994 32.9939 24.3576 31.9343C26.9157 30.8747 29.1022 29.0803 30.6406 26.778C32.1789 24.4757 33 21.7689 33 19C33 15.287 31.525 11.726 28.8995 9.1005C26.274 6.475 22.713 5 19 5ZM17 24.59L12 19.59L13.59 18L17 21.41L24.41 14L26.006 15.586L17 24.59Z" fill="#0FA931"/>
</svg>
