<svg width="45" height="45" viewBox="0 0 45 45" fill="none" xmlns="http://www.w3.org/2000/svg">
<path d="M11.25 39.375H7.5C6.46447 39.375 5.625 38.5355 5.625 37.5V7.5C5.625 6.46447 6.46447 5.625 7.5 5.625H37.5C38.5355 5.625 39.375 6.46447 39.375 7.5V11.25M11.25 39.375V43.125M11.25 39.375H33.75M33.75 39.375H37.5C38.5355 39.375 39.375 38.5355 39.375 37.5V33.75M33.75 39.375V43.125M39.375 11.25H37.6875C37.5839 11.25 37.5 11.3339 37.5 11.4375V16.6875C37.5 16.7911 37.5839 16.875 37.6875 16.875H39.375M39.375 11.25V16.875M39.375 16.875V28.125M39.375 28.125H37.6875C37.5839 28.125 37.5 28.2089 37.5 28.3125V33.5625C37.5 33.6661 37.5839 33.75 37.6875 33.75H39.375M39.375 28.125V33.75" stroke="#A0A2B0" stroke-width="2.3"/>
<path d="M13.9299 15.9375C12.2722 17.6285 11.25 19.9449 11.25 22.5C11.25 25.1226 12.3268 27.4936 14.0625 29.1951M13.9299 15.9375C15.6314 14.2018 18.0024 13.125 20.625 13.125C23.2476 13.125 25.6186 14.2018 27.3201 15.9375M13.9299 15.9375L19.2345 21.2421M27.1875 29.1951C28.9232 27.4936 30 25.1226 30 22.5C30 19.9449 28.9778 17.6285 27.3201 15.9375M27.1875 29.1951C25.4965 30.8528 23.1801 31.875 20.625 31.875C18.0699 31.875 15.7535 30.8528 14.0625 29.1951M27.1875 29.1951L21.8829 23.8905M27.3201 15.9375L22.0155 21.2421M14.0625 29.1951L19.3671 23.8905M22.0155 21.2421C21.6724 20.8631 21.1765 20.625 20.625 20.625C20.0735 20.625 19.5776 20.8631 19.2345 21.2421M22.0155 21.2421C22.3166 21.5748 22.5 22.016 22.5 22.5C22.5 23.0515 22.2619 23.5474 21.8829 23.8905M19.2345 21.2421C18.9334 21.5748 18.75 22.016 18.75 22.5C18.75 23.0515 18.9881 23.5474 19.3671 23.8905M19.3671 23.8905C19.6998 24.1916 20.141 24.375 20.625 24.375C21.109 24.375 21.5502 24.1916 21.8829 23.8905" stroke="#A0A2B0" stroke-opacity="0.5" stroke-width="2.3"/>
</svg>
