<svg width="35" height="35" viewBox="0 0 35 35" fill="none" xmlns="http://www.w3.org/2000/svg">
<circle cx="17.5" cy="17.5" r="17.5" fill="#323549" fill-opacity="0.2"/>
<path fill-rule="evenodd" clip-rule="evenodd" d="M27.7071 22.2929C28.0976 22.6834 28.0976 23.3166 27.7071 23.7071L23.7071 27.7071C23.3166 28.0976 22.6834 28.0976 22.2929 27.7071L20.2929 25.7071C19.9024 25.3166 19.9024 24.6834 20.2929 24.2929C20.6834 23.9024 21.3166 23.9024 21.7071 24.2929L23 25.5858L26.2929 22.2929C26.6834 21.9024 27.3166 21.9024 27.7071 22.2929Z" fill="#828495"/>
<path d="M9 12.8C9 11.1198 9 10.2798 9.32698 9.63803C9.6146 9.07354 10.0735 8.6146 10.638 8.32698C11.2798 8 12.1198 8 13.8 8H17.2C17.48 8 17.62 8 17.727 8.0545C17.8211 8.10243 17.8976 8.17892 17.9455 8.273C18 8.37996 18 8.51997 18 8.8V11C18 13.2091 19.7909 15 22 15H24.2C24.48 15 24.62 15 24.727 15.0545C24.8211 15.1024 24.8976 15.1789 24.9455 15.273C25 15.38 25 15.52 25 15.8V18.2C25 18.48 25 18.62 24.9455 18.727C24.8976 18.8211 24.8211 18.8976 24.727 18.9455C24.62 19 24.48 19 24.2 19H24C20.6863 19 18 21.6863 18 25V27.2C18 27.48 18 27.62 17.9455 27.727C17.8976 27.8211 17.8211 27.8976 17.727 27.9455C17.62 28 17.48 28 17.2 28H13.8C12.1198 28 11.2798 28 10.638 27.673C10.0735 27.3854 9.6146 26.9265 9.32698 26.362C9 25.7202 9 24.8802 9 23.2V12.8Z" fill="#A0A2B0" fill-opacity="0.5"/>
<path d="M20 8.70711C20 8.31658 20.3166 8 20.7071 8C20.8946 8 21.0745 8.0745 21.2071 8.20711L24.7929 11.7929C24.9255 11.9255 25 12.1054 25 12.2929C25 12.6834 24.6834 13 24.2929 13H22C20.8954 13 20 12.1046 20 11V8.70711Z" fill="#828495"/>
</svg>
