<svg width="46" height="49" viewBox="0 0 46 49" fill="none" xmlns="http://www.w3.org/2000/svg">
<path d="M31.6087 47.775H3.61437C1.77437 47.775 0.262939 46.2851 0.262939 44.398V3.44325C0.262939 1.5892 1.74151 0.0662231 3.61437 0.0662231H31.6087C33.4487 0.0662231 34.9601 1.55609 34.9601 3.44325V44.398C34.9601 46.2851 33.4487 47.775 31.6087 47.775Z" fill="white"/>
<path d="M34.9599 3.47635V44.4311C34.9599 46.2851 33.4814 47.775 31.6085 47.775H3.61423C1.77423 47.775 0.295654 46.2851 0.295654 44.4311V3.47635C0.295654 1.62229 1.77423 0.132427 3.61423 0.132427H31.6085C33.4485 0.0993187 34.9599 1.62229 34.9599 3.47635Z" fill="#323549"/>
<path d="M17.6114 46.252C18.4643 46.252 19.1557 45.5553 19.1557 44.6959C19.1557 43.8365 18.4643 43.1399 17.6114 43.1399C16.7585 43.1399 16.0671 43.8365 16.0671 44.6959C16.0671 45.5553 16.7585 46.252 17.6114 46.252Z" fill="#0D0E16"/>
<path d="M33.8101 3.37704H1.4458V41.7825H33.8101V3.37704Z" fill="#0D0E16"/>
<path d="M32.4871 29.5836L37.3142 36.1363C38.521 37.7745 38.0936 40.0062 36.3588 41.1459L31.1797 44.5409C30.6517 44.8733 30.0232 45.0395 29.3947 44.992C27.4588 44.8258 23.2602 44.4222 22.2545 44.0186C22.2545 44.0186 22.2545 44.0186 22.2545 43.9949C21.9528 43.8999 21.7014 43.71 21.5254 43.4488L18.9108 39.8875C20.3187 38.9616 22.2545 39.294 23.2351 40.6235L24.5675 42.4279L25.0201 42.1193L17.2766 31.6254C16.7989 30.9606 16.9497 30.0584 17.6537 29.5836C18.3576 29.1325 19.3382 29.275 19.8158 29.9397L23.587 35.068L24.0144 34.7831L22.7574 33.0736C22.2797 32.4089 22.4305 31.4829 23.1345 31.0318C23.8384 30.5808 24.819 30.7232 25.2966 31.4117L26.5789 33.1449L27.0565 32.8362L26.428 31.9815C26.0006 31.3642 26.1514 30.5333 26.8051 30.1059C27.4588 29.6786 28.3639 29.821 28.8164 30.4383L29.445 31.293L29.9729 30.9369C29.6712 30.3433 29.8724 29.6073 30.4506 29.2275C31.1294 28.8239 32.0345 28.9663 32.4871 29.5836Z" fill="#EDEDED"/>
<path d="M30.3929 14.8655H22.1129C21.5543 14.8655 21.1272 14.402 21.1272 13.8723C21.1272 13.3095 21.5872 12.8791 22.1129 12.8791H30.3929C30.9515 12.8791 31.3786 13.3426 31.3786 13.8723C31.3786 14.402 30.9515 14.8655 30.3929 14.8655Z" fill="#323549"/>
<path d="M30.3929 19.4013H22.1129C21.5543 19.4013 21.1272 18.9378 21.1272 18.4081C21.1272 17.8453 21.5872 17.4149 22.1129 17.4149H30.3929C30.9515 17.4149 31.3786 17.8784 31.3786 18.4081C31.3786 18.9709 30.9515 19.4013 30.3929 19.4013Z" fill="#323549"/>
<path d="M26.8772 23.9371H22.1129C21.5543 23.9371 21.1272 23.4736 21.1272 22.9439C21.1272 22.4142 21.5872 21.9507 22.1129 21.9507H26.8772C27.4358 21.9507 27.8629 22.4142 27.8629 22.9439C27.8629 23.4736 27.4358 23.9371 26.8772 23.9371Z" fill="#323549"/>
<rect x="5" y="13" width="13" height="12" rx="2" fill="#323549"/>
</svg>
