<svg width="42" height="49" viewBox="0 0 42 49" fill="none" xmlns="http://www.w3.org/2000/svg">
<path d="M40.9 48.8676H1.00005C0.600049 48.8676 0.300049 48.5365 0.300049 48.1723C0.300049 47.8081 0.633382 47.477 1.00005 47.477H40.9C41.3 47.477 41.6001 47.8081 41.6001 48.1723C41.6001 48.5365 41.3 48.8676 40.9 48.8676Z" fill="white" fill-opacity="0.21"/>
<path d="M37.2335 33.6378C37.2335 43.173 29.9668 48.7351 21.0002 48.7351C15.0002 48.7351 9.76685 46.252 6.96685 41.7493C5.56685 39.5311 4.76685 36.7831 4.76685 33.6378C4.76685 25.3939 10.8002 18.7061 14.8335 12.2169C17.7668 7.51555 24.2335 7.51555 27.1335 12.2169C30.0002 16.852 34.0668 21.8514 36.0335 27.3473C36.8002 29.4 37.2335 31.4858 37.2335 33.6378Z" fill="#323549"/>
<path d="M37.2334 33.6378C37.2334 43.173 29.9667 48.7351 21.0001 48.7351C17.4334 48.7351 14.1334 47.8412 11.4667 46.1858C9.9334 45.2257 10.7667 42.9081 12.5667 43.1399C13.6334 43.2723 14.7001 43.3385 15.8334 43.3385C26.1334 43.3385 34.6667 37.5115 36.0667 27.3142C36.8001 29.4 37.2334 31.4858 37.2334 33.6378Z" fill="#26283A"/>
<path d="M16.0332 10.5615C13.9666 8.31014 11.8666 4.96622 10.6999 3.01284C10.4332 2.54933 10.3666 2.0196 10.5332 1.48987C10.6999 0.993247 11.0666 0.59595 11.5332 0.397301C16.4999 -1.58919 19.0999 4.96622 30.0666 1.58919L25.2333 10.4953L16.0332 10.5615Z" fill="#26283A"/>
<path d="M39.6334 17.2493C38.3667 17.2493 36.7334 16.0574 34.5334 13.5081C32.0334 10.6277 30.2667 9.20404 29.1667 9.20404C28.3667 9.20404 27.6667 9.99863 26.6334 11.1905C26.3334 11.5547 25.7667 11.6209 25.3667 11.2898C25.0001 10.9919 24.9334 10.429 25.2667 10.0317C26.3334 8.74052 27.4667 7.4162 29.1667 7.4162C29.1667 7.4162 29.1667 7.4162 29.2001 7.4162C30.9667 7.4162 32.9001 8.83985 35.9334 12.3493C38.8001 15.6601 39.7001 15.4615 39.7334 15.4615C39.8001 15.3953 39.9334 15.0642 39.9334 14.7662C39.9334 14.2696 40.3334 13.8723 40.8334 13.8723C41.3334 13.8723 41.7334 14.2696 41.7334 14.7662C41.7334 14.9648 41.7001 16.6534 40.3667 17.15C40.1001 17.2162 39.8667 17.2493 39.6334 17.2493Z" fill="#26283A"/>
<path d="M31.5334 16.1237C31.0334 16.1237 30.6334 15.7264 30.6334 15.2297C30.6334 13.3426 29.7334 10.8595 28.4667 10.3297C27.8334 10.0649 27.0334 10.3628 26.1334 11.2568C25.8 11.5878 25.2334 11.5878 24.8667 11.2568C24.5334 10.9257 24.5334 10.3628 24.8667 9.99866C26.6667 8.21082 28.2 8.27704 29.1334 8.67433C31.4 9.60136 32.4 13.0777 32.4 15.2297C32.4 15.7264 32 16.1237 31.5334 16.1237Z" fill="#26283A"/>
<path d="M20.9002 39.8622C20.3002 39.8622 19.8002 39.3655 19.8002 38.7696V37.4122C18.8002 37.346 17.8002 37.1142 16.9668 36.7169C16.4002 36.452 16.1335 35.7899 16.3335 35.227C16.5002 34.7304 16.9668 34.3993 17.4668 34.3993C17.6335 34.3993 17.8002 34.4324 17.9668 34.4987C18.5335 34.7635 19.4335 35.0615 20.5002 35.0615C22.0002 35.0615 23.0335 34.2338 23.0335 33.0419C23.0335 31.9493 22.3002 31.221 20.5002 30.4926C18.3002 29.6318 16.2668 28.5061 16.2668 25.9899C16.2668 23.9041 17.7002 22.2818 19.9335 21.7851V20.3946C19.9335 19.7987 20.4335 19.302 21.0335 19.302C21.6335 19.302 22.1335 19.7987 22.1335 20.3946V21.6527C22.9335 21.7189 23.6668 21.8845 24.3335 22.1493C24.9335 22.3811 25.2335 23.0764 25.0002 23.7054C24.8335 24.1689 24.3668 24.4669 23.8668 24.4669C23.7002 24.4669 23.5335 24.4338 23.4002 24.3676C22.7335 24.1027 22.0335 23.9703 21.2668 23.9703C19.6335 23.9703 19.0335 24.8973 19.0335 25.6919C19.0335 26.6851 19.6668 27.2149 21.8335 28.1088C24.6335 29.2345 25.8335 30.6581 25.8335 32.8764C25.8335 35.0615 24.3002 36.7831 21.9668 37.2797V38.7696C22.0335 39.3655 21.5335 39.8622 20.9002 39.8622Z" fill="white"/>
</svg>
