<svg width="52" height="49" viewBox="0 0 52 49" fill="none" xmlns="http://www.w3.org/2000/svg">
<path d="M28.08 41.1113C28.08 41.7716 27.5253 42.3276 26.8667 42.3276H1.52534C0.866678 42.3276 0.312012 41.7716 0.312012 41.1113C0.312012 40.451 0.866678 39.895 1.52534 39.895H26.8667C27.5253 39.895 28.08 40.451 28.08 41.1113Z" fill="#323549"/>
<path d="M12.0639 15.9511V41.1113H3.9519V15.9511C3.9519 15.4298 4.3679 15.0128 4.8879 15.0128H11.1279C11.6479 15.0128 12.0639 15.4298 12.0639 15.9511Z" fill="#323549"/>
<path d="M25.1679 9.27871V41.1113H17.0559V9.27871C17.0559 8.79218 17.4372 8.40991 17.9226 8.40991H24.3359C24.7866 8.40991 25.1679 8.79218 25.1679 9.27871Z" fill="#323549"/>
<path d="M38.1681 0.834028V22.8667L37.2321 23.2489L30.0215 26.3766V0.834028C30.0215 0.417006 30.3682 0.0694885 30.7842 0.0694885H37.4055C37.8215 0.0694885 38.1681 0.417006 38.1681 0.834028Z" fill="#323549"/>
<path d="M28.0802 41.1113C28.0802 41.7716 27.5255 42.3276 26.8668 42.3276H24.7868C24.5788 41.9454 24.4055 41.5283 24.2321 41.1113C24.0935 40.7291 23.9548 40.312 23.8161 39.895C23.5041 38.7482 23.3308 37.5666 23.3308 36.3156C23.3308 33.8482 23.9895 31.5546 25.1681 29.6085V39.895H26.8668C27.5255 39.895 28.0802 40.451 28.0802 41.1113Z" fill="#0D0E16"/>
<path d="M37.2321 23.2837L30.0215 26.4113V24.917C31.8935 23.8744 34.0775 23.2489 36.3655 23.2489C36.6428 23.2489 36.9548 23.2489 37.2321 23.2837Z" fill="#0D0E16"/>
<path d="M37.5 48C43.8513 48 49 42.8513 49 36.5C49 30.1487 43.8513 25 37.5 25C31.1487 25 26 30.1487 26 36.5C26 42.8513 31.1487 48 37.5 48Z" fill="#323549"/>
<path d="M33.32 32.2886C33.32 33.0114 33.8857 33.5771 34.6086 33.5771H38.6L32.3771 39.8C31.8743 40.3029 31.8743 41.12 32.3771 41.6229C32.88 42.1257 33.6971 42.1257 34.2 41.6229L40.4229 35.4V39.3914C40.4229 40.1143 40.9886 40.68 41.7114 40.68C42.4343 40.68 43 40.1143 43 39.3914V32.2886C43 31.5657 42.4343 31 41.7114 31H34.6086C33.9171 31 33.32 31.5657 33.32 32.2886Z" fill="#EDEDED"/>
</svg>
