<svg width="24" height="24" viewBox="0 0 24 24" fill="none" xmlns="http://www.w3.org/2000/svg">
<path d="M15.0009 11.9993C15.0009 13.288 13.9562 14.3327 12.6676 14.3327C11.3789 14.3327 10.3342 13.288 10.3342 11.9993C10.3342 10.7107 11.3789 9.66602 12.6676 9.66602C13.9562 9.66602 15.0009 10.7107 15.0009 11.9993Z" stroke="#A0A2B0" stroke-width="1.5"/>
<path d="M11.4569 5L11.0952 7.21584C10.4241 7.43422 9.81489 7.78859 9.30033 8.24624L7.21063 7.45155L6 9.54842L7.72098 10.9555C7.64952 11.2925 7.61194 11.6419 7.61194 12C7.61194 12.3581 7.64952 12.7075 7.72097 13.0444L6 14.4515L7.21063 16.5484L9.30333 15.7564C9.81726 16.2128 10.4254 16.5662 11.0952 16.7842L11.4569 19H13.8781L14.2398 16.7842C14.9109 16.5658 15.5201 16.2114 16.0347 15.7538L18.1244 16.5485L19.335 14.4516L17.614 13.0445C17.6855 12.7075 17.7231 12.3581 17.7231 12C17.7231 11.6419 17.6855 11.2925 17.614 10.9556L19.335 9.54845L18.1244 7.45158L16.0317 8.24358C15.5178 7.78722 14.9096 7.4338 14.2398 7.21584L13.8781 5H11.4569Z" stroke="white" stroke-width="1.5"/>
</svg>
