<svg width="17" height="17" viewBox="0 0 17 17" fill="none" xmlns="http://www.w3.org/2000/svg">
<path d="M2 15.5833L1.37677 15.3987C1.31852 15.5953 1.35648 15.8079 1.47918 15.9722C1.60188 16.1366 1.79493 16.2333 2 16.2333V15.5833ZM14.75 15.5833V16.2333C14.9551 16.2333 15.1481 16.1366 15.2708 15.9722C15.3935 15.8079 15.4315 15.5953 15.3732 15.3987L14.75 15.5833ZM2.62323 15.768C3.40143 13.141 5.70077 11.275 8.375 11.275V9.975C5.06634 9.975 2.30121 12.2781 1.37677 15.3987L2.62323 15.768ZM8.375 11.275C11.0492 11.275 13.3486 13.141 14.1268 15.768L15.3732 15.3987C14.4488 12.2781 11.6837 9.975 8.375 9.975V11.275ZM2 16.2333H14.75V14.9333H2V16.2333Z" fill="#A0A2B0" fill-opacity="0.5"/>
<path d="M11.2666 4.95964C11.2666 6.55666 9.97194 7.8513 8.37492 7.8513V9.1513C10.6899 9.1513 12.5666 7.27463 12.5666 4.95964H11.2666ZM8.37492 7.8513C6.7779 7.8513 5.48325 6.55666 5.48325 4.95964H4.18325C4.18325 7.27463 6.05992 9.1513 8.37492 9.1513V7.8513ZM5.48325 4.95964C5.48325 3.36261 6.7779 2.06797 8.37492 2.06797V0.767969C6.05992 0.767969 4.18325 2.64464 4.18325 4.95964H5.48325ZM8.37492 2.06797C9.97194 2.06797 11.2666 3.36261 11.2666 4.95964H12.5666C12.5666 2.64464 10.6899 0.767969 8.37492 0.767969V2.06797Z" fill="#A0A2B0"/>
</svg>
