<svg width="9" height="6" viewBox="0 0 9 6" fill="none" xmlns="http://www.w3.org/2000/svg">
<path opacity="0.7" d="M4.20775 5.73151C4.18628 5.7314 4.16505 5.72705 4.14527 5.71871C4.12548 5.71037 4.10753 5.6982 4.09244 5.6829L3.04896 4.62908C3.03306 4.61343 3.02052 4.59468 3.01212 4.57399C3.00373 4.5533 2.99964 4.5311 3.00013 4.50877C3.00062 4.48644 3.00567 4.46444 3.01497 4.44414C3.02426 4.42384 3.03761 4.40566 3.05418 4.39072C3.37643 4.11759 3.78487 3.96771 4.20696 3.96771C4.62906 3.96771 5.0375 4.11759 5.35975 4.39072C5.37604 4.40579 5.38908 4.42405 5.39805 4.44437C5.40702 4.46469 5.41174 4.48664 5.41192 4.50885C5.41231 4.53118 5.40816 4.55335 5.39973 4.57402C5.3913 4.59469 5.37876 4.61342 5.36288 4.62908L4.3194 5.6829C4.28995 5.7131 4.24988 5.73055 4.20775 5.73151ZM6.03801 3.8821C5.9965 3.8821 5.95656 3.8662 5.92636 3.83767C5.456 3.41011 4.84363 3.17327 4.20853 3.17327C3.57343 3.17327 2.96106 3.41011 2.4907 3.83767C2.4605 3.8662 2.42056 3.8821 2.37905 3.8821C2.35773 3.8822 2.33659 3.87805 2.31689 3.86988C2.29718 3.86171 2.27929 3.8497 2.26427 3.83454L1.66218 3.22451C1.6463 3.20885 1.63368 3.19018 1.62507 3.16958C1.61646 3.14898 1.61202 3.12688 1.61202 3.10455C1.61202 3.08222 1.61646 3.06011 1.62507 3.03951C1.63368 3.01892 1.6463 3.00024 1.66218 2.98458C2.35326 2.34034 3.26221 1.98219 4.20618 1.98219C5.15015 1.98219 6.0591 2.34034 6.75018 2.98458C6.7664 3.00004 6.77937 3.0186 6.78833 3.03916C6.79729 3.05971 6.80206 3.08186 6.80236 3.10429C6.80249 3.14928 6.78486 3.1925 6.75331 3.22451L6.15227 3.83454C6.13729 3.84961 6.11948 3.86158 6.09987 3.86974C6.08027 3.8779 6.05924 3.8821 6.03801 3.8821ZM7.42323 2.47858C7.40254 2.47877 7.38202 2.47485 7.36286 2.46704C7.34369 2.45924 7.32626 2.4477 7.31157 2.4331C6.47365 1.63488 5.36163 1.18976 4.2054 1.18976C3.04917 1.18976 1.93715 1.63488 1.09923 2.4331C1.08454 2.4477 1.06711 2.45924 1.04794 2.46704C1.02878 2.47485 1.00826 2.47877 0.987574 2.47858C0.966248 2.47868 0.945116 2.47452 0.925409 2.46636C0.905703 2.45819 0.887816 2.44618 0.872791 2.43101L0.272269 1.82151C0.25662 1.80588 0.244204 1.7873 0.235733 1.76685C0.227261 1.7464 0.2229 1.72447 0.2229 1.70233C0.2229 1.68019 0.227261 1.65826 0.235733 1.63781C0.244204 1.61736 0.25662 1.59879 0.272269 1.58315C1.3309 0.567165 2.74023 0 4.20618 0C5.67214 0 7.08147 0.567165 8.1401 1.58315C8.15618 1.5986 8.16907 1.61709 8.17802 1.63754C8.18698 1.65799 8.19182 1.68001 8.19227 1.70233C8.19247 1.72455 8.18823 1.74659 8.17981 1.76714C8.17139 1.7877 8.15895 1.80636 8.14323 1.82204L7.53957 2.43101C7.52438 2.44639 7.50624 2.45853 7.48625 2.46671C7.46626 2.47488 7.44482 2.47892 7.42323 2.47858Z" fill="white"/>
</svg>
